<svg width="30" height="30" viewBox="0 0 30 30" fill="none" xmlns="http://www.w3.org/2000/svg">
<path d="M29.25 15C29.25 22.8702 22.8702 29.25 15 29.25C7.12984 29.25 0.75 22.8702 0.75 15C0.75 7.12984 7.12984 0.75 15 0.75C22.8702 0.75 29.25 7.12984 29.25 15Z" fill="url(#paint0_linear)"/>
<path d="M6.98417 12.8415V12.6336C6.98417 9.29723 9.69866 6.58274 13.035 6.58274C16.1698 6.58274 18.7554 8.9789 19.0565 12.0359L20.5266 13.3772C20.5436 13.1963 20.5529 13.0176 20.5529 12.8415V12.6336C20.5529 8.48837 17.1805 5.11591 13.035 5.11591C8.88979 5.11591 5.51733 8.48837 5.51733 12.6336V12.8415C5.51733 14.938 6.71911 17.3809 9.08984 20.1026C10.8082 22.0756 12.5027 23.4513 12.5741 23.509L13.035 23.8814V21.9752C11.5486 20.6727 6.98417 16.3842 6.98417 12.8415V12.8415Z" fill="white"/>
<path d="M17.5458 18.7213H19.746V20.9215H17.5458V18.7213Z" fill="white"/>
<path d="M9.81628 12.6336C9.81628 14.4084 11.2603 15.8524 13.035 15.8524C14.8097 15.8524 16.2537 14.4084 16.2537 12.6336C16.2537 10.8589 14.8097 9.41492 13.035 9.41492C11.2603 9.41492 9.81628 10.8589 9.81628 12.6336ZM14.5838 12.6336C14.5838 13.4875 13.8889 14.1825 13.035 14.1825C12.1811 14.1825 11.4862 13.4877 11.4862 12.6336C11.4862 11.7798 12.1809 11.0848 13.035 11.0848C13.8889 11.0848 14.5838 11.7798 14.5838 12.6336Z" fill="white"/>
<path d="M24.4827 18.8345L18.6275 13.4929L12.7723 18.8345L13.8978 20.0682L14.2153 19.7786V21.9034C14.2153 23.0558 15.1528 23.9934 16.3055 23.9934H20.9497C22.1024 23.9934 23.04 23.0558 23.04 21.9034V19.7786L23.3574 20.0682L24.4827 18.8345ZM21.3698 21.9034C21.3698 22.135 21.1813 22.3235 20.9497 22.3235H16.3053C16.0735 22.3235 15.885 22.135 15.885 21.9034V18.255L18.6275 15.7532L21.3698 18.255V21.9034Z" fill="white"/>
<defs>
<linearGradient id="paint0_linear" x1="0.75" y1="15" x2="29.25" y2="15" gradientUnits="userSpaceOnUse">
<stop stop-color="#27AE24"/>
<stop offset="1" stop-color="#306604"/>
</linearGradient>
</defs>
</svg>
