<svg width="15" height="17" viewBox="0 0 15 17" fill="none" xmlns="http://www.w3.org/2000/svg">
<path d="M7.54 10.93C6.48 10.93 5.60333 10.58 4.91 9.88005C4.22333 9.18005 3.88 8.32005 3.88 7.30005C3.88 6.28005 4.22333 5.42005 4.91 4.72005C5.60333 4.02005 6.48 3.67005 7.54 3.67005C8.18 3.67005 8.76667 3.82338 9.3 4.13005C9.84 4.43671 10.26 4.85005 10.56 5.37005L9.75 5.84005C9.55 5.45338 9.25 5.14672 8.85 4.92005C8.45667 4.68672 8.02 4.57005 7.54 4.57005C6.73333 4.57005 6.07333 4.83005 5.56 5.35005C5.05333 5.87005 4.8 6.52005 4.8 7.30005C4.8 8.07338 5.05333 8.72005 5.56 9.24005C6.07333 9.76005 6.73333 10.02 7.54 10.02C8.02 10.02 8.45667 9.90672 8.85 9.68005C9.25 9.44672 9.55 9.14005 9.75 8.76005L10.56 9.22005C10.2667 9.74005 9.85 10.1567 9.31 10.47C8.77 10.7767 8.18 10.93 7.54 10.93Z" fill="white"/>
<circle cx="7.5" cy="7.5" r="6.5" stroke="white" stroke-width="2"/>
</svg>
