<svg width="110" height="110" viewBox="0 0 110 110" fill="none" xmlns="http://www.w3.org/2000/svg">
<path d="M67.6495 4.55422L58.6828 15.4096L52.2779 2L45.8731 15.4096L35.6254 6.46988L34.0242 21.7952L19.9335 15.4096L24.4169 29.7771L10.3263 28.1807L16.7311 40.3133L3.60121 43.8253L13.8489 53.4036L2 59.1506L14.8097 65.8554L5.8429 77.0301H19.9335L14.8097 90.759L27.6193 86.9277V100.657L38.8278 93.6325L42.9909 108L52.2779 96.8253L58.6828 108L64.7674 96.8253L75.0151 104.169L76.9366 90.759L89.7462 96.8253L86.5438 82.1386L100.314 83.7349L92.3082 71.6024L108 69.0482L95.5106 59.1506L108 52.1265L95.5106 46.0602L103.837 35.2048H89.7462L95.5106 21.7952L81.4199 24.988L83.0211 11.259L70.852 18.2831L67.6495 4.55422Z" fill="#FF0000" stroke="#FF0000"/>
</svg>
