<svg width="40" height="40" viewBox="0 0 40 40" fill="none" xmlns="http://www.w3.org/2000/svg">
<circle cx="20" cy="20" r="19.25" fill="#266A23" stroke="white" stroke-width="1.5"/>
<path d="M36.6905 20C36.6905 29.2181 29.2181 36.6905 20 36.6905C10.782 36.6905 3.30957 29.2181 3.30957 20C3.30957 10.782 10.782 3.30957 20 3.30957C29.2181 3.30957 36.6905 10.782 36.6905 20Z" fill="white" stroke="#157913"/>
<mask id="path-3-inside-1" fill="white">
<path d="M10.3301 17.3961V17.1454C10.3301 13.1206 13.6047 9.84593 17.6296 9.84593C21.4112 9.84593 24.5303 12.7365 24.8936 16.4243L26.6671 18.0425C26.6875 17.8242 26.6988 17.6086 26.6988 17.3961V17.1454C26.6988 12.1448 22.6304 8.07642 17.6296 8.07642C12.629 8.07642 8.56061 12.1448 8.56061 17.1454V17.3961C8.56061 19.9253 10.0104 22.8723 12.8703 26.1556C14.9433 28.5357 16.9874 30.1954 17.0735 30.2649L17.6296 30.7142V28.4146C15.8364 26.8434 10.3301 21.6699 10.3301 17.3961Z"/>
</mask>
<path d="M10.3301 17.3961V17.1454C10.3301 13.1206 13.6047 9.84593 17.6296 9.84593C21.4112 9.84593 24.5303 12.7365 24.8936 16.4243L26.6671 18.0425C26.6875 17.8242 26.6988 17.6086 26.6988 17.3961V17.1454C26.6988 12.1448 22.6304 8.07642 17.6296 8.07642C12.629 8.07642 8.56061 12.1448 8.56061 17.1454V17.3961C8.56061 19.9253 10.0104 22.8723 12.8703 26.1556C14.9433 28.5357 16.9874 30.1954 17.0735 30.2649L17.6296 30.7142V28.4146C15.8364 26.8434 10.3301 21.6699 10.3301 17.3961Z" fill="#157913"/>
<path d="M24.8936 16.4243L22.9032 16.6204L22.9785 17.3843L23.5456 17.9017L24.8936 16.4243ZM26.6671 18.0425L25.319 19.5199L28.2837 22.225L28.6583 18.2291L26.6671 18.0425ZM12.8703 26.1556L14.3785 24.842L14.3784 24.8419L12.8703 26.1556ZM17.0735 30.2649L18.3305 28.7092L18.3304 28.7092L17.0735 30.2649ZM17.6296 30.7142L16.3726 32.2698L19.6296 34.9015V30.7142H17.6296ZM17.6296 28.4146H19.6296V27.5079L18.9476 26.9103L17.6296 28.4146ZM12.3301 17.3961V17.1454H8.33012V17.3961H12.3301ZM12.3301 17.1454C12.3301 14.2251 14.7093 11.8459 17.6296 11.8459V7.84593C12.5002 7.84593 8.33012 12.016 8.33012 17.1454H12.3301ZM17.6296 11.8459C20.3715 11.8459 22.6397 13.9452 22.9032 16.6204L26.884 16.2282C26.4209 11.5279 22.4509 7.84593 17.6296 7.84593V11.8459ZM23.5456 17.9017L25.319 19.5199L28.0151 16.565L26.2417 14.9469L23.5456 17.9017ZM28.6583 18.2291C28.6838 17.9574 28.6988 17.679 28.6988 17.3961H24.6988C24.6988 17.5382 24.6912 17.691 24.6758 17.8558L28.6583 18.2291ZM28.6988 17.3961V17.1454H24.6988V17.3961H28.6988ZM28.6988 17.1454C28.6988 11.0402 23.735 6.07642 17.6296 6.07642V10.0764C21.5259 10.0764 24.6988 13.2494 24.6988 17.1454H28.6988ZM17.6296 6.07642C11.5244 6.07642 6.56061 11.0402 6.56061 17.1454H10.5606C10.5606 13.2493 13.7335 10.0764 17.6296 10.0764V6.07642ZM6.56061 17.1454V17.3961H10.5606V17.1454H6.56061ZM6.56061 17.3961C6.56061 20.6522 8.39422 24.0619 11.3622 27.4692L14.3784 24.8419C11.6265 21.6827 10.5606 19.1983 10.5606 17.3961H6.56061ZM11.3621 27.4691C13.5446 29.975 15.6897 31.718 15.8166 31.8206L18.3304 28.7092C18.2852 28.6727 16.342 27.0965 14.3785 24.842L11.3621 27.4691ZM15.8165 31.8205L16.3726 32.2698L18.8866 29.1586L18.3305 28.7092L15.8165 31.8205ZM19.6296 30.7142V28.4146H15.6296V30.7142H19.6296ZM18.9476 26.9103C18.0919 26.1605 16.3689 24.5657 14.8761 22.6782C13.3063 20.6933 12.3301 18.8012 12.3301 17.3961H8.33012C8.33012 20.2649 10.1071 23.0964 11.7387 25.1594C13.4474 27.3199 15.3741 29.0974 16.3115 29.9188L18.9476 26.9103Z" fill="#157913" mask="url(#path-3-inside-1)"/>
<path d="M23.0711 24.4893H25.7254V27.1435H23.0711V24.4893Z" fill="#157913"/>
<path d="M13.7467 17.1454C13.7467 19.2863 15.4887 21.0283 17.6296 21.0283C19.7706 21.0283 21.5125 19.2863 21.5125 17.1454C21.5125 15.0044 19.7706 13.2625 17.6296 13.2625C15.4887 13.2625 13.7467 15.0044 13.7467 17.1454ZM19.498 17.1454C19.498 18.1754 18.6597 19.0138 17.6296 19.0138C16.5995 19.0138 15.7612 18.1757 15.7612 17.1454C15.7612 16.1153 16.5993 15.277 17.6296 15.277C18.6597 15.277 19.498 16.1153 19.498 17.1454Z" fill="#157913"/>
<path d="M30.7332 24.6581L30.0496 25.4076L30.0361 25.3952L29.1991 24.6316V25.7646V28.3279C29.1991 29.4419 28.2919 30.3492 27.1775 30.3492H21.575C20.4606 30.3492 19.5534 29.4419 19.5534 28.3279V25.7646V24.6316L18.7164 25.3952L18.7028 25.4076L18.0191 24.6581L24.3761 18.8587L30.7332 24.6581ZM20.7307 23.5573L20.5677 23.706V23.9266V28.3279C20.5677 28.8835 21.0191 29.3347 21.5747 29.3347H27.1775C27.733 29.3347 28.1843 28.8834 28.1843 28.3279V23.9266V23.706L28.0213 23.5573L24.7131 20.5392L24.3761 20.2318L24.0391 20.5392L20.7307 23.5573Z" fill="#157913" stroke="#157913"/>
</svg>
