<svg width="40" height="40" viewBox="0 0 40 40" fill="none" xmlns="http://www.w3.org/2000/svg">
<circle cx="20" cy="20" r="19.25" fill="#266A23" stroke="white" stroke-width="1.5"/>
<path d="M36.6905 20C36.6905 29.2181 29.2181 36.6905 20 36.6905C10.782 36.6905 3.30957 29.2181 3.30957 20C3.30957 10.782 10.782 3.30957 20 3.30957C29.2181 3.30957 36.6905 10.782 36.6905 20Z" fill="white" stroke="#306604"/>
<path d="M28.3125 23.2714C26.4581 23.2714 24.6897 22.8674 23.0587 22.0702C22.803 21.9477 22.5065 21.9284 22.2357 22.0208C21.965 22.1153 21.7436 22.313 21.619 22.5687L20.8454 24.1696C18.5247 22.8373 16.5994 20.9098 15.265 18.5891L16.868 17.8156C17.1258 17.6909 17.3214 17.4696 17.4159 17.1988C17.5083 16.9281 17.4911 16.6316 17.3665 16.3759C16.5672 14.7471 16.1632 12.9786 16.1632 11.122C16.1632 10.5289 15.6818 10.0476 15.0888 10.0476H11.1221C10.529 10.0476 10.0477 10.5289 10.0477 11.122C10.0477 21.1935 18.2411 29.3869 28.3125 29.3869C28.9056 29.3869 29.387 28.9056 29.387 28.3125V24.3458C29.387 23.7527 28.9056 23.2714 28.3125 23.2714Z" fill="white" stroke="#157913" stroke-width="1.5"/>
</svg>
