<svg width="30" height="30" viewBox="0 0 30 30" fill="none" xmlns="http://www.w3.org/2000/svg">
<path d="M29.25 15C29.25 22.8702 22.8702 29.25 15 29.25C7.12984 29.25 0.75 22.8702 0.75 15C0.75 7.12984 7.12984 0.75 15 0.75C22.8702 0.75 29.25 7.12984 29.25 15Z" fill="url(#paint0_linear)"/>
<path d="M21.8906 17.7118C20.3534 17.7118 18.8874 17.3769 17.5355 16.7161C17.3235 16.6146 17.0777 16.5985 16.8532 16.6751C16.6288 16.7535 16.4453 16.9174 16.342 17.1293L15.7008 18.4564C13.777 17.352 12.181 15.7542 11.0749 13.8305L12.4037 13.1892C12.6174 13.0859 12.7795 12.9024 12.8579 12.678C12.9345 12.4536 12.9203 12.2078 12.8169 11.9958C12.1543 10.6456 11.8194 9.17963 11.8194 7.64062C11.8194 7.149 11.4204 6.75 10.9288 6.75H7.64062C7.149 6.75 6.75 7.149 6.75 7.64062C6.75 15.9893 13.5419 22.7812 21.8906 22.7812C22.3822 22.7812 22.7812 22.3822 22.7812 21.8906V18.6024C22.7812 18.1108 22.3822 17.7118 21.8906 17.7118Z" fill="#FAFAFA"/>
<defs>
<linearGradient id="paint0_linear" x1="0.75" y1="15" x2="29.25" y2="15" gradientUnits="userSpaceOnUse">
<stop stop-color="#27AE24"/>
<stop offset="1" stop-color="#306604"/>
</linearGradient>
</defs>
</svg>
