<svg width="40" height="40" viewBox="0 0 40 40" fill="none" xmlns="http://www.w3.org/2000/svg">
<circle cx="20" cy="20" r="19.25" fill="#266A23" stroke="white" stroke-width="1.5"/>
<circle cx="20" cy="20" r="15.25" fill="white" stroke="white" stroke-width="1.5"/>
<path d="M25.6953 17.1408C25.6953 17.2118 25.64 17.2579 25.5859 17.2579C25.5319 17.2579 25.4766 17.2118 25.4766 17.1408C25.4766 17.0698 25.5319 17.0237 25.5859 17.0237C25.64 17.0237 25.6953 17.0698 25.6953 17.1408Z" fill="#157913" stroke="#157913" stroke-width="1.5"/>
<path d="M25.6953 9.77037V10.5204H26.4453H27.5625C29.0374 10.5204 30.25 11.7342 30.25 13.2388V18.1814C30.25 18.2525 30.1947 18.2985 30.1406 18.2985C30.0865 18.2985 30.0312 18.2525 30.0312 18.1814V13.2388C30.0312 11.8747 28.9308 10.7546 27.5625 10.7546H26.4453H25.6953V11.5046V12.3717C25.6953 12.4428 25.64 12.4888 25.5859 12.4888C25.5318 12.4888 25.4766 12.4428 25.4766 12.3717V11.5046V10.7546H24.7266H20.8164H20.0664V11.5046V12.3717C20.0664 12.4428 20.0111 12.4888 19.957 12.4888C19.9029 12.4888 19.8477 12.4428 19.8477 12.3717V11.5046V10.7546H19.0977H15.2305H14.4805V11.5046V12.3717C14.4805 12.4428 14.4252 12.4888 14.3711 12.4888C14.317 12.4888 14.2617 12.4428 14.2617 12.3717V11.5046V10.7546H13.5117H12.4375C11.0692 10.7546 9.96875 11.8747 9.96875 13.2388V26.7659C9.96875 28.13 11.0692 29.2501 12.4375 29.2501H19.0117C19.0658 29.2501 19.1211 29.2962 19.1211 29.3672C19.1211 29.4383 19.0658 29.4843 19.0117 29.4843H12.4375C10.9626 29.4843 9.75 28.2705 9.75 26.7659V13.2388C9.75 11.7342 10.9626 10.5204 12.4375 10.5204H13.5117H14.2617V9.77037V8.90325C14.2617 8.8322 14.317 8.78613 14.3711 8.78613C14.4252 8.78613 14.4805 8.8322 14.4805 8.90325V9.77037V10.5204H15.2305H19.0977H19.8477V9.77037V8.90325C19.8477 8.8322 19.9029 8.78613 19.957 8.78613C20.0111 8.78613 20.0664 8.8322 20.0664 8.90325V9.77037V10.5204H20.8164H24.7266H25.4766V9.77037V8.90325C25.4766 8.8322 25.5318 8.78613 25.5859 8.78613C25.64 8.78613 25.6953 8.8322 25.6953 8.90325V9.77037Z" fill="#157913" stroke="#157913" stroke-width="1.5"/>
<path d="M21.3516 24.9882C21.3516 22.5034 23.3544 20.4922 25.8008 20.4922C28.2471 20.4922 30.25 22.5034 30.25 24.9882C30.25 27.4731 28.2471 29.4843 25.8008 29.4843C23.3544 29.4843 21.3516 27.4731 21.3516 24.9882ZM21.5703 24.9882C21.5703 27.3326 23.4611 29.2501 25.8008 29.2501C28.1404 29.2501 30.0312 27.3326 30.0312 24.9882C30.0312 22.6439 28.1404 20.7264 25.8008 20.7264C23.4611 20.7264 21.5703 22.6439 21.5703 24.9882Z" fill="#157913" stroke="#157913" stroke-width="1.5"/>
<path d="M25.9102 24.1211V24.8711H26.6602H27.0469C27.101 24.8711 27.1562 24.9172 27.1562 24.9882C27.1562 25.0593 27.101 25.1053 27.0469 25.1053H25.8008C25.7467 25.1053 25.6914 25.0593 25.6914 24.9882V23.2106C25.6914 23.1396 25.7467 23.0935 25.8008 23.0935C25.8549 23.0935 25.9102 23.1396 25.9102 23.2106V24.1211Z" fill="#157913" stroke="#157913" stroke-width="1.5"/>
<path d="M21.957 17.1408C21.957 17.2118 21.9017 17.2579 21.8477 17.2579C21.7936 17.2579 21.7383 17.2118 21.7383 17.1408C21.7383 17.0698 21.7936 17.0237 21.8477 17.0237C21.9017 17.0237 21.957 17.0698 21.957 17.1408Z" fill="#157913" stroke="#157913" stroke-width="1.5"/>
<path d="M18.2188 20.9128C18.2188 20.9838 18.1635 21.0299 18.1094 21.0299C18.0553 21.0299 18 20.9838 18 20.9128C18 20.8417 18.0553 20.7957 18.1094 20.7957C18.1635 20.7957 18.2188 20.8417 18.2188 20.9128Z" fill="#157913" stroke="#157913" stroke-width="1.5"/>
<path d="M14.4805 17.1408C14.4805 17.2118 14.4252 17.2579 14.3711 17.2579C14.317 17.2579 14.2617 17.2118 14.2617 17.1408C14.2617 17.0698 14.317 17.0237 14.3711 17.0237C14.4252 17.0237 14.4805 17.0698 14.4805 17.1408Z" fill="#157913" stroke="#157913" stroke-width="1.5"/>
<path d="M14.4805 20.9128C14.4805 20.9838 14.4252 21.0299 14.3711 21.0299C14.317 21.0299 14.2617 20.9838 14.2617 20.9128C14.2617 20.8417 14.317 20.7957 14.3711 20.7957C14.4252 20.7957 14.4805 20.8417 14.4805 20.9128Z" fill="#157913" stroke="#157913" stroke-width="1.5"/>
<path d="M14.4805 24.6847C14.4805 24.7558 14.4252 24.8019 14.3711 24.8019C14.317 24.8019 14.2617 24.7558 14.2617 24.6847C14.2617 24.6137 14.317 24.5676 14.3711 24.5676C14.4252 24.5676 14.4805 24.6137 14.4805 24.6847Z" fill="#157913" stroke="#157913" stroke-width="1.5"/>
<path d="M18.2188 24.6847C18.2188 24.7558 18.1635 24.8019 18.1094 24.8019C18.0553 24.8019 18 24.7558 18 24.6847C18 24.6137 18.0553 24.5676 18.1094 24.5676C18.1635 24.5676 18.2188 24.6137 18.2188 24.6847Z" fill="#157913" stroke="#157913" stroke-width="1.5"/>
<path d="M18.2188 17.1408C18.2188 17.2118 18.1635 17.2579 18.1094 17.2579C18.0553 17.2579 18 17.2118 18 17.1408C18 17.0698 18.0553 17.0237 18.1094 17.0237C18.1635 17.0237 18.2188 17.0698 18.2188 17.1408Z" fill="#157913" stroke="#157913" stroke-width="1.5"/>
</svg>
